<mxfile host="Electron" modified="2024-03-21T12:45:29.321Z" agent="Mozilla/5.0 (Windows NT 10.0; Win64; x64) AppleWebKit/537.36 (KHTML, like Gecko) draw.io/24.0.4 Chrome/120.0.6099.109 Electron/28.1.0 Safari/537.36" etag="NEIBvtAKATMf5Q3sKzAd" version="24.0.4" type="device">
  <diagram id="C5RBs43oDa-KdzZeNtuy" name="Page-1">
    <mxGraphModel dx="1122" dy="540" grid="1" gridSize="10" guides="1" tooltips="1" connect="1" arrows="1" fold="1" page="1" pageScale="1" pageWidth="827" pageHeight="1169" math="0" shadow="0">
      <root>
        <mxCell id="WIyWlLk6GJQsqaUBKTNV-0" />
        <mxCell id="WIyWlLk6GJQsqaUBKTNV-1" parent="WIyWlLk6GJQsqaUBKTNV-0" />
        <mxCell id="8MDfD9ciwLQI5URQnCsf-0" value="Inicio" style="ellipse;whiteSpace=wrap;html=1;" vertex="1" parent="WIyWlLk6GJQsqaUBKTNV-1">
          <mxGeometry x="70" y="60" width="120" height="80" as="geometry" />
        </mxCell>
        <mxCell id="8MDfD9ciwLQI5URQnCsf-1" value="Leer año deseado" style="shape=parallelogram;perimeter=parallelogramPerimeter;whiteSpace=wrap;html=1;fixedSize=1;" vertex="1" parent="WIyWlLk6GJQsqaUBKTNV-1">
          <mxGeometry x="60" y="190" width="140" height="60" as="geometry" />
        </mxCell>
        <mxCell id="8MDfD9ciwLQI5URQnCsf-2" value="" style="endArrow=classic;html=1;rounded=0;entryX=0.543;entryY=0.167;entryDx=0;entryDy=0;entryPerimeter=0;exitX=0.498;exitY=1.03;exitDx=0;exitDy=0;exitPerimeter=0;" edge="1" parent="WIyWlLk6GJQsqaUBKTNV-1" source="8MDfD9ciwLQI5URQnCsf-0">
          <mxGeometry width="50" height="50" relative="1" as="geometry">
            <mxPoint x="129" y="129.98" as="sourcePoint" />
            <mxPoint x="129.01999999999998" y="189.99999999999997" as="targetPoint" />
          </mxGeometry>
        </mxCell>
        <mxCell id="8MDfD9ciwLQI5URQnCsf-3" value="" style="endArrow=classic;html=1;rounded=0;" edge="1" parent="WIyWlLk6GJQsqaUBKTNV-1">
          <mxGeometry width="50" height="50" relative="1" as="geometry">
            <mxPoint x="129" y="250" as="sourcePoint" />
            <mxPoint x="129" y="300" as="targetPoint" />
          </mxGeometry>
        </mxCell>
        <mxCell id="8MDfD9ciwLQI5URQnCsf-4" value="año%4=0" style="rhombus;whiteSpace=wrap;html=1;" vertex="1" parent="WIyWlLk6GJQsqaUBKTNV-1">
          <mxGeometry x="50" y="300" width="160" height="80" as="geometry" />
        </mxCell>
        <mxCell id="8MDfD9ciwLQI5URQnCsf-5" value="" style="endArrow=classic;html=1;rounded=0;" edge="1" parent="WIyWlLk6GJQsqaUBKTNV-1">
          <mxGeometry width="50" height="50" relative="1" as="geometry">
            <mxPoint x="210" y="339.71" as="sourcePoint" />
            <mxPoint x="290" y="339.71" as="targetPoint" />
          </mxGeometry>
        </mxCell>
        <mxCell id="8MDfD9ciwLQI5URQnCsf-7" value="año%100=0" style="rhombus;whiteSpace=wrap;html=1;" vertex="1" parent="WIyWlLk6GJQsqaUBKTNV-1">
          <mxGeometry x="290" y="300" width="160" height="80" as="geometry" />
        </mxCell>
        <mxCell id="8MDfD9ciwLQI5URQnCsf-8" value="Si" style="text;html=1;align=center;verticalAlign=middle;whiteSpace=wrap;rounded=0;" vertex="1" parent="WIyWlLk6GJQsqaUBKTNV-1">
          <mxGeometry x="176" y="310" width="60" height="30" as="geometry" />
        </mxCell>
        <mxCell id="8MDfD9ciwLQI5URQnCsf-10" value="No" style="text;html=1;align=center;verticalAlign=middle;whiteSpace=wrap;rounded=0;" vertex="1" parent="WIyWlLk6GJQsqaUBKTNV-1">
          <mxGeometry x="116" y="380" width="60" height="30" as="geometry" />
        </mxCell>
        <mxCell id="8MDfD9ciwLQI5URQnCsf-14" value="No" style="text;html=1;align=center;verticalAlign=middle;whiteSpace=wrap;rounded=0;" vertex="1" parent="WIyWlLk6GJQsqaUBKTNV-1">
          <mxGeometry x="354" y="380" width="60" height="30" as="geometry" />
        </mxCell>
        <mxCell id="8MDfD9ciwLQI5URQnCsf-15" value="" style="endArrow=classic;html=1;rounded=0;" edge="1" parent="WIyWlLk6GJQsqaUBKTNV-1">
          <mxGeometry width="50" height="50" relative="1" as="geometry">
            <mxPoint x="450" y="340" as="sourcePoint" />
            <mxPoint x="530" y="340" as="targetPoint" />
          </mxGeometry>
        </mxCell>
        <mxCell id="8MDfD9ciwLQI5URQnCsf-17" value="Si" style="text;html=1;align=center;verticalAlign=middle;whiteSpace=wrap;rounded=0;" vertex="1" parent="WIyWlLk6GJQsqaUBKTNV-1">
          <mxGeometry x="436" y="310" width="60" height="30" as="geometry" />
        </mxCell>
        <mxCell id="8MDfD9ciwLQI5URQnCsf-18" value="" style="endArrow=classic;html=1;rounded=0;" edge="1" parent="WIyWlLk6GJQsqaUBKTNV-1">
          <mxGeometry width="50" height="50" relative="1" as="geometry">
            <mxPoint x="864.57" y="350" as="sourcePoint" />
            <mxPoint x="865" y="760" as="targetPoint" />
          </mxGeometry>
        </mxCell>
        <mxCell id="8MDfD9ciwLQI5URQnCsf-21" value="Fin" style="ellipse;whiteSpace=wrap;html=1;" vertex="1" parent="WIyWlLk6GJQsqaUBKTNV-1">
          <mxGeometry x="805" y="770" width="120" height="80" as="geometry" />
        </mxCell>
        <mxCell id="8MDfD9ciwLQI5URQnCsf-22" value="Mensaje &quot;Es un año bisiesto&quot;" style="shape=parallelogram;perimeter=parallelogramPerimeter;whiteSpace=wrap;html=1;fixedSize=1;" vertex="1" parent="WIyWlLk6GJQsqaUBKTNV-1">
          <mxGeometry x="300" y="445" width="140" height="60" as="geometry" />
        </mxCell>
        <mxCell id="8MDfD9ciwLQI5URQnCsf-25" value="Mensaje &quot;No es un año bisiesto&quot;" style="shape=parallelogram;perimeter=parallelogramPerimeter;whiteSpace=wrap;html=1;fixedSize=1;" vertex="1" parent="WIyWlLk6GJQsqaUBKTNV-1">
          <mxGeometry x="50" y="450" width="160" height="60" as="geometry" />
        </mxCell>
        <mxCell id="8MDfD9ciwLQI5URQnCsf-26" value="" style="endArrow=classic;html=1;rounded=0;exitX=0.5;exitY=1;exitDx=0;exitDy=0;" edge="1" parent="WIyWlLk6GJQsqaUBKTNV-1">
          <mxGeometry width="50" height="50" relative="1" as="geometry">
            <mxPoint x="369.57" y="380" as="sourcePoint" />
            <mxPoint x="369.57" y="440" as="targetPoint" />
          </mxGeometry>
        </mxCell>
        <mxCell id="8MDfD9ciwLQI5URQnCsf-28" value="año%400=0" style="rhombus;whiteSpace=wrap;html=1;" vertex="1" parent="WIyWlLk6GJQsqaUBKTNV-1">
          <mxGeometry x="530" y="300" width="160" height="80" as="geometry" />
        </mxCell>
        <mxCell id="8MDfD9ciwLQI5URQnCsf-29" value="Mensaje &quot;Es un año bisiesto&quot;" style="shape=parallelogram;perimeter=parallelogramPerimeter;whiteSpace=wrap;html=1;fixedSize=1;" vertex="1" parent="WIyWlLk6GJQsqaUBKTNV-1">
          <mxGeometry x="770" y="310" width="190" height="60" as="geometry" />
        </mxCell>
        <mxCell id="8MDfD9ciwLQI5URQnCsf-30" value="" style="endArrow=classic;html=1;rounded=0;" edge="1" parent="WIyWlLk6GJQsqaUBKTNV-1">
          <mxGeometry width="50" height="50" relative="1" as="geometry">
            <mxPoint x="130" y="380" as="sourcePoint" />
            <mxPoint x="130" y="440" as="targetPoint" />
          </mxGeometry>
        </mxCell>
        <mxCell id="8MDfD9ciwLQI5URQnCsf-34" value="No" style="text;html=1;align=center;verticalAlign=middle;whiteSpace=wrap;rounded=0;" vertex="1" parent="WIyWlLk6GJQsqaUBKTNV-1">
          <mxGeometry x="600" y="380" width="60" height="30" as="geometry" />
        </mxCell>
        <mxCell id="8MDfD9ciwLQI5URQnCsf-36" value="" style="endArrow=classic;html=1;rounded=0;" edge="1" parent="WIyWlLk6GJQsqaUBKTNV-1">
          <mxGeometry width="50" height="50" relative="1" as="geometry">
            <mxPoint x="609.57" y="380" as="sourcePoint" />
            <mxPoint x="609.57" y="440" as="targetPoint" />
          </mxGeometry>
        </mxCell>
        <mxCell id="8MDfD9ciwLQI5URQnCsf-37" value="Mensaje &quot;No es un año bisiesto&quot;" style="shape=parallelogram;perimeter=parallelogramPerimeter;whiteSpace=wrap;html=1;fixedSize=1;" vertex="1" parent="WIyWlLk6GJQsqaUBKTNV-1">
          <mxGeometry x="530" y="445" width="160" height="60" as="geometry" />
        </mxCell>
        <mxCell id="8MDfD9ciwLQI5URQnCsf-38" value="" style="endArrow=classic;html=1;rounded=0;" edge="1" parent="WIyWlLk6GJQsqaUBKTNV-1">
          <mxGeometry width="50" height="50" relative="1" as="geometry">
            <mxPoint x="690" y="340" as="sourcePoint" />
            <mxPoint x="770" y="340" as="targetPoint" />
          </mxGeometry>
        </mxCell>
        <mxCell id="8MDfD9ciwLQI5URQnCsf-39" value="Si" style="text;html=1;align=center;verticalAlign=middle;whiteSpace=wrap;rounded=0;" vertex="1" parent="WIyWlLk6GJQsqaUBKTNV-1">
          <mxGeometry x="670" y="310" width="60" height="30" as="geometry" />
        </mxCell>
        <mxCell id="8MDfD9ciwLQI5URQnCsf-42" value="" style="endArrow=classic;html=1;rounded=0;" edge="1" parent="WIyWlLk6GJQsqaUBKTNV-1">
          <mxGeometry width="50" height="50" relative="1" as="geometry">
            <mxPoint x="609.57" y="510" as="sourcePoint" />
            <mxPoint x="790" y="810" as="targetPoint" />
            <Array as="points">
              <mxPoint x="610" y="810" />
            </Array>
          </mxGeometry>
        </mxCell>
        <mxCell id="8MDfD9ciwLQI5URQnCsf-43" value="" style="endArrow=classic;html=1;rounded=0;" edge="1" parent="WIyWlLk6GJQsqaUBKTNV-1">
          <mxGeometry width="50" height="50" relative="1" as="geometry">
            <mxPoint x="360.00000000000006" y="510" as="sourcePoint" />
            <mxPoint x="600" y="810" as="targetPoint" />
            <Array as="points">
              <mxPoint x="360" y="810" />
            </Array>
          </mxGeometry>
        </mxCell>
        <mxCell id="8MDfD9ciwLQI5URQnCsf-44" value="" style="endArrow=classic;html=1;rounded=0;" edge="1" parent="WIyWlLk6GJQsqaUBKTNV-1">
          <mxGeometry width="50" height="50" relative="1" as="geometry">
            <mxPoint x="129.57000000000005" y="520" as="sourcePoint" />
            <mxPoint x="350" y="810" as="targetPoint" />
            <Array as="points">
              <mxPoint x="130" y="810" />
            </Array>
          </mxGeometry>
        </mxCell>
      </root>
    </mxGraphModel>
  </diagram>
</mxfile>
